# xmcd CD database file
#
# Track frame offsets:
#	150
#	24758
#	42076
#	61857
#	66293
#	92125
#	111051
#	139184
#	150969
#	159653
#	175400
#	203235
#
# Disc length: 2898 seconds
#
# Revision: 0
# Processed by: cddbd v1.5.1PL0 Copyright (c) Steve Scherf et al.
# Submitted via: CDex 1.50Beta7
#
DISCID=960b500c
DTITLE=Ani Williams - Children Of The Sun
DYEAR=1900
DGENRE=New Age
TTITLE0=1. Secret Canyon
TTITLE1=2. Zatopec Traditional Song
TTITLE2=3. She
TTITLE3=4. Makochi Ptenzum
TTITLE4=5. Makochi Instrumental Adaptation
TTITLE5=6. Earth Mother
TTITLE6=7. Golden Flower
TTITLE7=8. Earth Rising
TTITLE8=9. Pitenzin
TTITLE9=10. Vasija De Barro
TTITLE10=11. Thazocamatli
TTITLE11=12. Children Of The Sun
EXTD=
EXTT0=
EXTT1=
EXTT2=
EXTT3=
EXTT4=
EXTT5=
EXTT6=
EXTT7=
EXTT8=
EXTT9=
EXTT10=
EXTT11=
PLAYORDER=
